<svg width="61" height="61" viewBox="0 0 61 61" fill="none" xmlns="http://www.w3.org/2000/svg">
<path d="M20.0041 34.4792C21.4779 41.2492 23.0882 47.8303 27.1822 53.6292C29.0655 51.903 30.8668 50.2038 32.6955 48.5046C33.487 49.7722 33.1868 50.6084 32.0132 51.4175C30.5939 52.3885 29.3111 53.5213 27.8919 54.6272C28.1648 55.0587 28.4104 55.4094 28.7653 55.9488C30.321 54.5193 31.7948 53.1437 33.3505 51.6872C33.5416 52.3346 33.6781 52.847 33.8964 53.5753C37.8812 47.6954 39.628 41.2492 41.02 34.3174C45.3596 36.3403 49.7811 37.9047 53.6295 40.3321C59.0609 43.7845 61.0533 49.2868 60.9987 55.5442C60.9987 56.5691 60.371 57.2704 59.4157 57.4862C57.1777 58.0256 54.9396 58.592 52.647 58.9427C44.2952 60.2643 35.9161 61.2622 27.4279 60.9386C19.3763 60.6419 11.4067 59.563 3.49157 58.1605C0.516597 57.648 -0.220318 56.5152 0.0526157 53.5483C0.73495 46.2389 4.33768 41.0334 11.2975 38.1744C14.136 37.0146 17.0018 35.7469 20.0041 34.4792Z" fill="#3E396B"/>
<path d="M20.0041 34.4792C21.4779 41.2492 23.0882 47.8303 27.1822 53.6292C29.0655 51.903 30.8668 50.2038 32.6955 48.5046C33.487 49.7722 33.1868 50.6084 32.0132 51.4175C30.5939 52.3885 29.3111 53.5213 27.8919 54.6272C28.1648 55.0587 28.4104 55.4094 28.7653 55.9488C30.321 54.5193 31.7948 53.1437 33.3505 51.6872C33.5416 52.3346 33.6781 52.847 33.8964 53.5753C37.8812 47.6954 39.628 41.2492 41.02 34.3174C45.3596 36.3403 49.7811 37.9047 53.6295 40.3321C59.0609 43.7845 61.0533 49.2868 60.9987 55.5442C60.9987 56.5691 60.371 57.2704 59.4157 57.4862C57.1777 58.0256 54.9396 58.592 52.647 58.9427C44.2952 60.2643 35.9161 61.2622 27.4279 60.9386C19.3763 60.6419 11.4067 59.563 3.49157 58.1605C0.516597 57.648 -0.220318 56.5152 0.0526157 53.5483C0.73495 46.2389 4.33768 41.0334 11.2975 38.1744C14.136 37.0146 17.0018 35.7469 20.0041 34.4792Z" fill="#555555"/>
<path d="M31.4126 20.6158C29.9115 20.6158 28.656 20.6697 27.4005 20.5888C27.073 20.5618 26.6363 20.1303 26.5271 19.7796C25.9267 17.7298 26.4725 15.8687 27.8372 14.2774C28.6014 13.3873 29.5294 12.6591 30.4028 11.8499C31.5218 10.798 32.3679 9.66521 32.286 7.99296C32.2041 6.18585 31.2216 4.99908 29.3383 4.99908C28.1374 4.99908 26.9092 5.24183 25.7356 5.51155C24.3709 5.83521 23.3065 5.53852 22.8698 4.48662C22.3239 3.24592 22.7333 1.70852 23.9343 1.22303C27.4278 -0.206473 31.0032 -0.503162 34.5241 0.980287C39.2731 2.9762 39.164 8.96394 36.653 11.8499C35.8069 12.8209 34.8243 13.7379 33.8145 14.5471C31.8766 16.1115 30.5938 17.8107 31.4126 20.6158Z" fill="#3E396B"/>
<path d="M31.4126 20.6158C29.9115 20.6158 28.656 20.6697 27.4005 20.5888C27.073 20.5618 26.6363 20.1303 26.5271 19.7796C25.9267 17.7298 26.4725 15.8687 27.8372 14.2774C28.6014 13.3873 29.5294 12.6591 30.4028 11.8499C31.5218 10.798 32.3679 9.66521 32.286 7.99296C32.2041 6.18585 31.2216 4.99908 29.3383 4.99908C28.1374 4.99908 26.9092 5.24183 25.7356 5.51155C24.3709 5.83521 23.3065 5.53852 22.8698 4.48662C22.3239 3.24592 22.7333 1.70852 23.9343 1.22303C27.4278 -0.206473 31.0032 -0.503162 34.5241 0.980287C39.2731 2.9762 39.164 8.96394 36.653 11.8499C35.8069 12.8209 34.8243 13.7379 33.8145 14.5471C31.8766 16.1115 30.5938 17.8107 31.4126 20.6158Z" fill="#555555"/>
<path d="M29.4477 23.2589C31.5766 23.2589 32.8594 24.3648 32.8594 26.2528C32.8594 28.1139 31.5493 29.3006 29.5023 29.3006C27.428 29.3006 26.0087 28.0599 25.9814 26.1989C25.9541 24.3918 27.3188 23.2589 29.4477 23.2589Z" fill="#3E396B"/>
<path d="M29.4477 23.2589C31.5766 23.2589 32.8594 24.3648 32.8594 26.2528C32.8594 28.1139 31.5493 29.3006 29.5023 29.3006C27.428 29.3006 26.0087 28.0599 25.9814 26.1989C25.9541 24.3918 27.3188 23.2589 29.4477 23.2589Z" fill="#555555"/>
<path d="M29.0381 42.0314C29.9934 40.44 29.0108 39.6848 28.0009 38.8217C26.5271 37.554 26.6363 37.0955 28.5195 36.4752C30.1844 35.9088 31.822 36.0436 33.3777 36.8528C34.0328 37.2034 34.2238 37.6619 33.6234 38.2283C32.2314 39.55 30.8395 40.8716 29.4475 42.1932C29.311 42.1123 29.1746 42.0853 29.0381 42.0314Z" fill="#3E396B"/>
<path d="M29.0381 42.0314C29.9934 40.44 29.0108 39.6848 28.0009 38.8217C26.5271 37.554 26.6363 37.0955 28.5195 36.4752C30.1844 35.9088 31.822 36.0436 33.3777 36.8528C34.0328 37.2034 34.2238 37.6619 33.6234 38.2283C32.2314 39.55 30.8395 40.8716 29.4475 42.1932C29.311 42.1123 29.1746 42.0853 29.0381 42.0314Z" fill="#555555"/>
<path d="M32.1225 45.1333C32.8867 46.4819 32.5865 47.318 31.4402 48.0732C30.212 48.8824 29.1203 49.8533 27.6737 50.9862C28.0558 47.8844 30.7851 47.1022 32.1225 45.1333Z" fill="#3E396B"/>
<path d="M32.1225 45.1333C32.8867 46.4819 32.5865 47.318 31.4402 48.0732C30.212 48.8824 29.1203 49.8533 27.6737 50.9862C28.0558 47.8844 30.7851 47.1022 32.1225 45.1333Z" fill="#555555"/>
<path d="M28.6289 46.3737C28.3013 43.8923 30.594 43.4338 31.4947 41.8695C32.2316 43.6226 32.2316 43.6226 30.9488 44.6206C30.2392 45.187 29.475 45.7534 28.6289 46.3737Z" fill="#3E396B"/>
<path d="M28.6289 46.3737C28.3013 43.8923 30.594 43.4338 31.4947 41.8695C32.2316 43.6226 32.2316 43.6226 30.9488 44.6206C30.2392 45.187 29.475 45.7534 28.6289 46.3737Z" fill="#555555"/>
</svg>
