<svg width="88" height="80" viewBox="0 0 88 80" fill="none" xmlns="http://www.w3.org/2000/svg">
<path d="M43.9681 78.0952C28.0157 78.0952 14.365 68.254 8.6507 54.2858H6.58724C12.3809 69.2857 26.984 80 43.9681 80C61.0315 80 75.5553 69.2857 81.3489 54.2858H79.2855C73.5712 68.254 59.9204 78.0952 43.9681 78.0952Z" fill="#555555" fill-opacity="0.5"/>
<path d="M43.9681 1.90475C59.9205 1.90475 73.5712 11.746 79.2855 25.7142H81.349C75.5554 10.7143 60.9522 0 43.9681 0C26.9047 0 12.3809 10.7143 6.58728 25.7142H8.65075C14.365 11.746 28.0158 1.90475 43.9681 1.90475Z" fill="#555555" fill-opacity="0.5"/>
<path d="M11.6667 54.3648H10.635C16.1905 67.3012 29.0476 76.3488 43.9682 76.3488C58.8888 76.3488 71.746 67.3012 77.3015 54.3648H76.2698C70.7936 66.7457 58.3333 75.3965 43.9682 75.3965C29.6032 75.3965 17.1429 66.7457 11.6667 54.3648Z" fill="#555555" fill-opacity="0.5"/>
<path d="M76.2698 25.7143H77.3015C71.746 12.7778 58.8888 3.73019 43.9682 3.73019C29.0476 3.73019 16.1905 12.7778 10.635 25.7143H11.6667C17.1429 13.3334 29.6032 4.68258 43.9682 4.68258C58.4126 4.68258 70.7936 13.3334 76.2698 25.7143Z" fill="#555555" fill-opacity="0.5"/>
<path d="M66.2692 54.365H65.0787C60.4755 61.111 52.6978 65.6348 43.8883 65.6348C35.0788 65.6348 27.301 61.1904 22.6979 54.365H21.5074C26.2693 61.6666 34.4438 66.5872 43.8089 66.5872C53.3327 66.5872 61.5866 61.6666 66.2692 54.365Z" fill="#555555" fill-opacity="0.5"/>
<path d="M21.6664 25.7141H22.8569C27.4601 18.9681 35.2378 14.4443 44.0473 14.4443C52.8568 14.4443 60.6346 18.8887 65.2377 25.7141H66.4282C61.6663 18.4126 53.4918 13.4919 44.1267 13.4919C34.6029 13.4919 26.349 18.3332 21.6664 25.7141Z" fill="#555555" fill-opacity="0.5"/>
<path d="M84.603 26.9838H3.33334C1.50794 26.9838 0 28.4917 0 30.3171V49.7615C0 51.5869 1.50794 53.0949 3.33334 53.0949H84.603C86.4284 53.0949 87.9364 51.5869 87.9364 49.7615V30.3171C87.9364 28.4917 86.4284 26.9838 84.603 26.9838ZM85.3967 49.7615C85.3967 50.1584 85.0792 50.5552 84.603 50.5552H3.33334C2.93651 50.5552 2.53969 50.2377 2.53969 49.7615V30.3171C2.53969 29.9203 2.85715 29.5235 3.33334 29.5235H84.603C84.9999 29.5235 85.3967 29.8409 85.3967 30.3171V49.7615Z" fill="#555555" fill-opacity="0.5"/>
<path d="M3.25406 49.7617L84.6031 49.841C84.6031 49.841 84.6824 49.841 84.6824 49.7617V30.3173L3.33341 30.2379L3.25406 49.7617ZM78.5713 33.6506H79.9999V37.4601C79.9999 37.6188 79.9999 37.7776 79.9205 37.9363C79.8412 38.0157 79.7618 38.095 79.6825 38.095C79.6031 38.095 79.5237 38.0157 79.4444 37.9363C79.365 37.8569 79.365 37.6982 79.365 37.5395L79.2856 36.9839C79.2063 36.4284 79.1269 35.8728 78.9681 35.476C78.8888 35.2379 78.7301 34.9998 78.5713 34.8411V33.6506ZM75.5555 45.2379L75.6349 45.1585C75.7142 45.0792 75.7142 44.8411 75.7142 44.603V33.6506H78.0952V44.603C78.0952 44.8411 78.0951 44.9998 78.1745 45.1585C78.1745 45.2379 78.2539 45.2379 78.2539 45.2379C78.2539 45.2379 78.3332 45.3172 78.492 45.3172C78.6507 45.3966 78.7301 45.5553 78.7301 45.7934C78.7301 45.9522 78.6507 46.1109 78.5713 46.1903C78.492 46.2696 78.4126 46.2696 78.2539 46.2696H75.5555C75.3967 46.2696 75.3174 46.2696 75.238 46.1109C75.1587 46.0315 75.0793 45.8728 75.0793 45.7141C75.0793 45.476 75.1587 45.2379 75.3174 45.2379C75.4761 45.3173 75.5555 45.2379 75.5555 45.2379ZM73.8888 33.6506H75.3174V34.7617C75.1587 34.9204 74.9999 35.1585 74.9206 35.3966C74.7618 35.7934 74.6824 36.349 74.6031 36.9046L74.5237 37.4601C74.5237 37.6188 74.4444 37.7776 74.4444 37.8569C74.365 37.9363 74.2856 38.0157 74.2063 38.0157C74.1269 38.0157 74.0475 37.9363 73.9682 37.8569C73.8888 37.7776 73.8888 37.6188 73.8888 37.3807V33.6506ZM72.2221 43.095V46.349H69.9999V45.3172C70.238 45.2379 70.3968 45.1585 70.5555 45.0792C70.7142 44.9998 70.8729 44.7617 71.0317 44.603C71.1904 44.3649 71.2698 44.1268 71.4285 43.8887C71.5079 43.6506 71.5872 43.3331 71.6666 42.9363C71.6666 42.6982 71.7459 42.6188 71.8253 42.5395C71.9047 42.4601 71.9047 42.4601 71.984 42.4601C72.0634 42.4601 72.1428 42.5395 72.2221 42.6188C72.2221 42.6982 72.2221 42.8569 72.2221 43.095ZM69.9999 33.6506H72.1428V36.9839C72.1428 37.1427 72.1428 37.3014 72.0634 37.3807C71.9841 37.4601 71.984 37.5395 71.8253 37.5395C71.7459 37.5395 71.6666 37.5395 71.6666 37.4601C71.6666 37.3807 71.5872 37.3014 71.5872 37.1427C71.4285 36.4284 71.2698 35.8728 71.0317 35.476C70.7936 35.0792 70.3968 34.8411 69.9999 34.7617V33.6506ZM69.9999 39.3649C70.238 39.2061 70.3968 38.9681 70.4761 38.8093C70.5555 38.5712 70.6349 38.3331 70.7142 38.0157C70.7142 37.7776 70.7936 37.6189 70.7936 37.5395C70.8729 37.4601 70.8729 37.3807 70.9523 37.3807C71.0317 37.3807 71.111 37.4601 71.1904 37.6189C71.1904 37.6982 71.1904 37.8569 71.1904 38.1744V41.7458C71.1904 42.0633 71.1904 42.222 71.1111 42.3808C71.1111 42.4601 71.0317 42.5395 70.873 42.5395C70.7936 42.5395 70.7142 42.4601 70.7142 42.3808C70.6349 42.3014 70.6348 42.1426 70.6348 41.9046C70.5555 41.5077 70.4761 41.1109 70.3968 40.9522C70.3174 40.7141 70.1587 40.5554 69.9999 40.476V39.3649ZM67.0634 34.8411C67.0634 34.7617 66.9841 34.7617 66.9841 34.7617C66.9841 34.7617 66.9047 34.6823 66.746 34.603C66.5872 34.5236 66.5079 34.3649 66.5079 34.1268C66.5079 33.9681 66.5079 33.8887 66.5872 33.73C66.6666 33.6506 66.746 33.5712 66.9047 33.5712H69.4444V46.349H66.9841C66.8253 46.349 66.746 46.349 66.6666 46.1903C66.5872 46.1109 66.5872 45.9522 66.5872 45.7934C66.5872 45.5553 66.6666 45.3966 66.8253 45.3172C66.9047 45.2379 66.984 45.2379 67.0634 45.1585C67.0634 45.1585 67.0634 45.0792 67.1428 45.0792C67.2222 44.9998 67.2222 44.8411 67.2222 44.603V35.2379C67.1428 35.1585 67.1428 34.9998 67.0634 34.8411ZM61.3492 33.6506C61.746 33.6506 62.0635 33.6506 62.3809 33.73C62.7777 33.8093 63.1745 34.0474 63.492 34.4443C63.9682 34.9998 64.2063 35.8728 64.2063 36.9046C64.2063 37.7776 64.0476 38.4919 63.7301 39.0474C63.5714 39.2855 63.4126 39.4442 63.2539 39.603C63.0952 39.7617 62.7777 39.9204 62.4603 40.0792C62.7777 40.1585 63.0158 40.2379 63.2539 40.3966C63.4126 40.476 63.5714 40.6347 63.7301 40.7934C63.8889 40.9522 63.9682 41.1903 64.0476 41.5077C64.1269 41.7458 64.2063 42.0633 64.2063 42.3808V44.2855C64.2063 44.5236 64.2063 44.603 64.2856 44.603C64.2856 44.603 64.365 44.603 64.365 44.5236C64.365 44.5236 64.4444 44.4442 64.4444 44.3649C64.5238 44.1268 64.6031 44.0474 64.6825 44.0474C64.7618 44.0474 64.8412 44.1268 64.8412 44.2061C64.9206 44.2855 64.9206 44.4442 64.9206 44.5236C64.9206 44.6823 64.8412 44.9204 64.7619 45.2379C64.6825 45.476 64.5238 45.7934 64.365 45.9522C64.2063 46.1903 64.0475 46.2696 63.8888 46.4284C63.7301 46.5077 63.492 46.5871 63.2539 46.5871C62.7777 46.5871 62.3809 46.349 62.1428 45.8728C61.9047 45.3966 61.746 44.7617 61.746 43.8887V42.3014C61.746 41.9839 61.746 41.7458 61.746 41.6665C61.746 41.4284 61.6666 41.1903 61.5873 41.0315C61.5079 40.7934 61.3491 40.7141 61.111 40.6347V39.603C61.2698 39.5236 61.4285 39.4442 61.5079 39.3649C61.5872 39.2855 61.6666 39.1268 61.6666 38.968C61.6666 38.8093 61.6666 38.6506 61.6666 38.3331V35.8728C61.6666 35.476 61.5872 35.1585 61.5079 34.9998C61.4285 34.8411 61.2698 34.6824 61.0317 34.5236V33.6506H61.3492ZM58.3333 34.8411C58.3333 34.7617 58.2539 34.7617 58.2539 34.7617C58.2539 34.7617 58.1746 34.6823 58.0158 34.603C57.8571 34.5236 57.7778 34.3649 57.7778 34.1268C57.7778 33.9681 57.7777 33.8887 57.8571 33.73C57.9365 33.6506 58.0159 33.5712 58.1746 33.5712H60.7142V44.5236C60.7142 44.7617 60.7143 44.9204 60.7936 45.0792C60.7936 45.1585 60.873 45.1585 60.873 45.1585C60.873 45.1585 60.9523 45.2379 61.111 45.2379C61.2698 45.3173 61.3492 45.476 61.3492 45.7141C61.3492 45.8728 61.2698 46.0315 61.1904 46.1109C61.1111 46.1903 61.0317 46.1903 60.873 46.1903H58.2539C58.0952 46.1903 58.0158 46.1903 57.9364 46.0315C57.8571 45.9522 57.8571 45.7934 57.8571 45.6347C57.8571 45.3966 57.9365 45.2379 58.0952 45.1585C58.1746 45.0792 58.2539 45.0791 58.3333 44.9998L58.4127 44.9204C58.492 44.841 58.492 44.6823 58.492 44.4442V35.0792C58.4126 35.1585 58.4126 34.9998 58.3333 34.8411ZM55.7936 44.2855C55.6349 44.6823 55.4761 45.0791 55.3174 45.3966C55.0793 45.7934 54.8413 46.1109 54.6032 46.349C54.3651 46.5871 54.0476 46.6665 53.7301 46.6665V45.5553C53.9682 45.5553 54.2857 45.3172 54.6032 44.9998C54.7619 44.8411 54.9206 44.603 55 44.2855C55.1587 43.968 55.2381 43.6506 55.3174 43.2538C55.3174 43.0157 55.3968 42.9363 55.4762 42.8569C55.5555 42.7776 55.5555 42.6982 55.6349 42.6982C55.7143 42.6982 55.7936 42.7776 55.873 42.8569C55.9524 42.9363 55.9523 43.095 55.9523 43.2538C56.0317 43.5712 55.9524 43.8887 55.7936 44.2855ZM53.7301 33.4125C53.8889 33.4919 54.0476 33.4919 54.1269 33.5712C54.2063 33.6506 54.4444 33.73 54.6825 33.8887C54.8412 33.9681 55 34.0474 55.0793 34.0474C55.1587 34.0474 55.2381 33.9681 55.3174 33.8093L55.3968 33.5712C55.4762 33.4125 55.5555 33.3332 55.6349 33.3332C55.7143 33.3332 55.7936 33.4125 55.873 33.4919C55.9524 33.5712 55.9523 33.73 55.9523 33.9681V37.8569C55.9523 38.095 55.9524 38.2538 55.873 38.4125C55.7936 38.4919 55.7143 38.5712 55.6349 38.5712C55.5555 38.5712 55.4762 38.4919 55.3968 38.4125C55.3174 38.3331 55.3174 38.1744 55.2381 37.9363C55.1587 37.4601 55.0793 37.0633 55 36.7458C54.8413 36.1903 54.6825 35.7141 54.4444 35.3173C54.2857 35.0792 54.2063 34.8411 54.0476 34.7617C53.8889 34.603 53.8095 34.5236 53.5714 34.5236V33.4125H53.7301ZM50.3968 37.5395C50.5555 36.7458 50.7936 36.0315 51.0317 35.3966C51.3492 34.7617 51.6667 34.2855 52.0635 33.9681C52.4603 33.5712 52.8571 33.4125 53.1746 33.4125H53.3333V34.5236C53.0952 34.603 52.9365 34.7617 52.8571 34.9998C52.7778 35.2379 52.6984 35.6347 52.6984 36.1109V44.2061C52.6984 44.3649 52.6984 44.5236 52.7777 44.6823C52.7777 44.8411 52.8571 44.9998 52.9365 45.0792C53.0158 45.2379 53.0158 45.3172 53.0952 45.3172C53.1746 45.3966 53.2539 45.3966 53.3333 45.3966V46.5077C52.619 46.5077 52.0635 46.1903 51.5079 45.5553C51.0317 44.9998 50.7143 44.2855 50.4762 43.3331C50.2381 42.3807 50.1587 41.2696 50.1587 39.9998C50.1587 39.2062 50.2381 38.3331 50.3968 37.5395ZM48.4921 43.095V46.349H46.2698V45.3172C46.5079 45.2379 46.6666 45.1585 46.8254 45.0792C46.9841 44.9998 47.1429 44.7617 47.3016 44.603C47.4603 44.3649 47.5397 44.1268 47.6984 43.8887C47.7778 43.6506 47.8571 43.3331 47.9365 42.9363C47.9365 42.6982 48.0159 42.6188 48.0952 42.5395C48.1746 42.4601 48.1746 42.4601 48.254 42.4601C48.3333 42.4601 48.4127 42.5395 48.4921 42.6188C48.4921 42.6982 48.4921 42.8569 48.4921 43.095ZM46.2698 33.6506H48.4127V36.9839C48.4127 37.1427 48.4127 37.3014 48.3333 37.3807C48.254 37.4601 48.254 37.5395 48.0952 37.5395C48.0159 37.5395 47.9365 37.5395 47.9365 37.4601C47.9365 37.3807 47.8571 37.3014 47.8571 37.1427C47.6984 36.4284 47.5397 35.8728 47.3016 35.476C47.0635 35.0792 46.6667 34.8411 46.2698 34.7617V33.6506ZM46.2698 39.3649C46.5079 39.2061 46.6667 38.9681 46.746 38.8093C46.8254 38.5712 46.9047 38.3331 46.9841 38.0157C46.9841 37.7776 47.0635 37.6189 47.0635 37.5395C47.1429 37.4601 47.1429 37.3807 47.3016 37.3807C47.3809 37.3807 47.4603 37.4601 47.5397 37.6189C47.5397 37.6982 47.5397 37.8569 47.5397 38.1744V41.7458C47.5397 42.0633 47.5397 42.222 47.4603 42.3808C47.4603 42.4601 47.3809 42.5395 47.2222 42.5395C47.1428 42.5395 47.0635 42.4601 47.0635 42.3808C46.9841 42.3014 46.9841 42.1426 46.9841 41.9046C46.9047 41.5077 46.8254 41.1109 46.746 40.9522C46.6667 40.7141 46.5079 40.5554 46.3492 40.476V39.3649H46.2698ZM43.4127 34.8411C43.4127 34.7617 43.3333 34.7617 43.3333 34.7617C43.3333 34.7617 43.254 34.6823 43.0953 34.603C42.9365 34.5236 42.8571 34.3649 42.8571 34.1268C42.8571 33.9681 42.8571 33.8887 42.9365 33.73C43.0159 33.6506 43.0952 33.5712 43.2539 33.5712H45.7936V46.349H43.2539C43.0952 46.349 43.0159 46.349 42.9365 46.1903C42.8571 46.1109 42.8571 45.9522 42.8571 45.7934C42.8571 45.5553 42.9365 45.3966 43.0953 45.3172C43.1746 45.2379 43.254 45.2379 43.3333 45.1585C43.3333 45.1585 43.3333 45.0792 43.4127 45.0792C43.4921 44.9998 43.4921 44.8411 43.4921 44.603V35.2379C43.4127 35.1585 43.4127 34.9998 43.4127 34.8411ZM38.5714 33.4125C38.8095 33.4125 38.9683 33.4919 39.127 33.5712C39.2857 33.6506 39.5238 33.8093 39.7619 33.9681C39.8413 34.0474 39.9207 34.0474 39.9207 34.0474C40 34.0474 40 33.9681 40.0793 33.8887L40.1587 33.6506C40.2381 33.4919 40.3175 33.4125 40.3968 33.4125C40.4762 33.4125 40.5555 33.4919 40.6349 33.5712C40.7143 33.73 40.7143 33.8887 40.7143 34.1268V37.222C40.7143 37.3808 40.7143 37.5395 40.6349 37.6982C40.5555 37.7776 40.4762 37.8569 40.3968 37.8569C40.3175 37.8569 40.2381 37.7776 40.2381 37.6982C40.2381 37.6189 40.1587 37.6189 40.1587 37.5395C40.1587 37.4601 40.1587 37.3808 40.0793 37.1427C40 36.8252 40 36.5077 39.8413 36.1903C39.7619 35.8728 39.6032 35.5554 39.5238 35.3173C39.2857 34.8411 38.9683 34.4442 38.5714 34.2855V33.4125ZM35.873 35.7141C36.0317 35.0792 36.2699 34.603 36.5873 34.2855C36.9841 33.8093 37.5397 33.4919 38.0952 33.4125V34.5236C37.8571 34.603 37.6984 34.7617 37.6191 34.9998C37.5397 35.2379 37.4603 35.476 37.4603 35.7934C37.4603 36.1109 37.5397 36.349 37.6191 36.5871C37.6984 36.8252 37.8571 37.0633 38.0952 37.222C38.254 37.3808 38.5715 37.6189 39.127 38.0157C39.4445 38.2538 39.6825 38.4919 39.8413 38.6506C40 38.8093 40.1587 39.1268 40.3175 39.3649C40.7143 40.1585 40.9524 41.0315 40.9524 42.1426C40.9524 42.9363 40.873 43.6506 40.6349 44.3649C40.3968 44.9998 40.0793 45.5553 39.6825 45.9522C39.4444 46.1903 39.2064 46.2696 38.9683 46.4284C38.7302 46.5077 38.4921 46.5871 38.254 46.5871V45.5553C38.5714 45.3966 38.8095 45.2379 38.8889 44.9998C39.0476 44.7617 39.127 44.4442 39.127 44.0474C39.127 43.6506 39.0476 43.2537 38.8095 42.9363C38.6508 42.6982 38.4127 42.4601 38.0159 42.1426C37.5397 41.8252 37.3016 41.5871 37.1429 41.4284C36.9842 41.2696 36.8254 41.1109 36.6667 40.9522C36.0317 40.0792 35.6349 38.9681 35.6349 37.6189C35.6349 36.9839 35.7143 36.2697 35.873 35.7141ZM35.6349 42.3014C35.6349 42.1427 35.6349 41.9839 35.7143 41.8252C35.7936 41.6665 35.873 41.6665 35.9524 41.6665C36.0318 41.6665 36.1111 41.6665 36.1111 41.7458C36.1905 41.8252 36.1905 41.9839 36.1905 42.222C36.2699 42.7776 36.4286 43.2537 36.5079 43.7299C36.6667 44.2061 36.8254 44.603 37.0635 44.9204C37.3016 45.2379 37.5397 45.476 37.7778 45.5553V46.5871C37.4603 46.5871 37.1429 46.4283 36.8254 46.1109C36.6667 46.0315 36.5873 45.9522 36.5873 45.8728C36.508 45.8728 36.5079 45.7934 36.4286 45.7934C36.3492 45.7934 36.2698 45.7934 36.2698 45.8728C36.2698 45.9522 36.1905 46.0315 36.1111 46.1903C36.0317 46.349 35.9524 46.4284 35.873 46.4284C35.6349 46.4284 35.5556 46.1903 35.5556 45.6347V42.3014H35.6349ZM27.2223 33.6506C27.9366 33.6506 28.4921 33.8093 28.8096 34.0474C29.2064 34.3649 29.5238 34.7617 29.7619 35.3173C30 35.8728 30.1587 36.6665 30.1587 37.4601C30.1587 38.4125 30 39.2061 29.7619 39.8411C29.5238 40.476 29.2064 40.8728 28.7302 41.1903C28.3333 41.4284 27.8572 41.5077 27.1429 41.5077V40.476C27.3016 40.3966 27.381 40.3173 27.4604 40.3173C27.5397 40.2379 27.5397 40.1585 27.6191 39.9998C27.6985 39.7617 27.6984 39.4442 27.6984 39.0474V36.0316C27.6984 35.7141 27.6984 35.5554 27.6984 35.3966C27.6984 35.2379 27.6191 35.1585 27.5397 34.9998C27.4603 34.8411 27.3016 34.6823 27.1429 34.6823V33.6506H27.2223ZM24.2858 34.8411C24.2858 34.7617 24.2064 34.7617 24.2064 34.7617C24.2064 34.7617 24.127 34.6823 23.9683 34.603C23.8096 34.5236 23.7302 34.3649 23.7302 34.1268C23.7302 33.9681 23.7302 33.8887 23.8095 33.73C23.8889 33.6506 23.9683 33.5712 24.127 33.5712H26.6667V44.5236C26.6667 44.7617 26.6667 44.9204 26.7461 45.0792C26.7461 45.1585 26.8254 45.1585 26.8254 45.1585C26.8254 45.1585 26.9048 45.2379 27.0635 45.2379C27.2223 45.3173 27.3016 45.476 27.3016 45.7141C27.3016 45.8728 27.2222 46.0315 27.1429 46.1109C27.0635 46.1903 26.9842 46.1903 26.8254 46.1903H24.127C23.9683 46.1903 23.8889 46.1903 23.8095 46.0315C23.7302 45.9522 23.7302 45.7934 23.7302 45.6347C23.7302 45.3966 23.8096 45.2379 23.9683 45.1585C24.0476 45.0792 24.127 45.0791 24.2064 44.9998C24.2064 44.9998 24.2064 44.9204 24.2858 44.9204C24.3651 44.841 24.3651 44.6823 24.3651 44.4442V35.0792C24.3651 35.1585 24.3651 34.9998 24.2858 34.8411ZM19.0476 45.6347C19.127 45.6347 19.2064 45.5553 19.2858 45.476C19.3651 45.3966 19.3651 45.3173 19.4445 45.2379C19.5238 44.9998 19.6032 44.603 19.6032 44.0474V35.7141C19.6032 35.3966 19.6032 35.1585 19.5239 34.9205C19.4445 34.7617 19.4445 34.6823 19.3651 34.603C19.2858 34.5236 19.2064 34.4443 19.127 34.3649V33.3332C19.5239 33.3332 19.8413 33.4919 20.1588 33.73C20.4762 33.9681 20.7937 34.3649 21.0318 34.7617C21.7461 36.0316 22.1429 37.6982 22.1429 39.9204C22.1429 42.0633 21.8254 43.7299 21.1112 44.9998C20.5556 45.9522 19.9207 46.4284 19.127 46.5871V45.6347H19.0476ZM15.8731 37.0633C16.0318 36.1903 16.3492 35.476 16.6667 34.8411C16.9048 34.3649 17.2223 34.0474 17.5397 33.8093C17.8572 33.5712 18.1747 33.4125 18.5715 33.4125V34.4443C18.4127 34.5236 18.254 34.6824 18.1747 34.9205C18.0953 35.0792 18.0953 35.3966 18.0953 35.7934V44.1268C18.0953 44.6823 18.1746 45.0791 18.254 45.3172C18.3334 45.476 18.4127 45.6347 18.6508 45.7141V46.7458C17.8572 46.6665 17.2223 46.1109 16.6667 45.1585C15.9524 43.968 15.635 42.3014 15.635 40.0792C15.5556 38.9681 15.7143 37.9363 15.8731 37.0633ZM12.6191 33.6506H14.0477V37.4601C14.0477 37.6188 14.0477 37.7776 13.9683 37.9363C13.889 38.0157 13.8096 38.095 13.7302 38.095C13.6509 38.095 13.5715 38.0157 13.4921 37.9363C13.4127 37.8569 13.4128 37.6982 13.4128 37.5395L13.3334 36.9839C13.254 36.4284 13.1747 35.8728 13.0159 35.476C12.9366 35.2379 12.7778 34.9998 12.6191 34.8411V33.6506ZM9.6826 45.2379L9.76199 45.1585C9.84136 45.0792 9.84134 44.8411 9.84134 44.603V33.6506H12.2223V44.603C12.2223 44.8411 12.2223 44.9998 12.3016 45.1585C12.3016 45.2379 12.381 45.2379 12.381 45.2379C12.381 45.2379 12.4604 45.3172 12.6191 45.3172C12.7778 45.3966 12.8572 45.5553 12.8572 45.7934C12.8572 45.9522 12.7778 46.1109 12.6985 46.1903C12.6191 46.2696 12.5398 46.2696 12.381 46.2696H9.6826C9.52387 46.2696 9.44453 46.2696 9.36517 46.1109C9.2858 46.0315 9.20643 45.8728 9.20643 45.7141C9.20643 45.476 9.28578 45.2379 9.44451 45.2379C9.60324 45.3173 9.6826 45.2379 9.6826 45.2379ZM8.01596 33.6506H9.44451V34.7617C9.28578 34.9204 9.12706 35.1585 9.04769 35.3966C8.88896 35.7934 8.80958 36.349 8.73021 36.9046L8.65087 37.4601C8.65087 37.6188 8.57152 37.7776 8.57152 37.8569C8.49216 37.9363 8.41275 38.0157 8.33339 38.0157C8.25402 38.0157 8.17467 37.9363 8.0953 37.8569C8.01594 37.7776 8.01596 37.6188 8.01596 37.3807V33.6506Z" fill="#555555" fill-opacity="0.5"/>
<path d="M43.7297 24.127L44.6821 22.3016L46.7455 21.9048L45.317 20.3968L45.6344 18.3333L43.7297 19.2857L41.8249 18.3333L42.1424 20.3968L40.6344 21.9048L42.6979 22.3016L43.7297 24.127Z" fill="#555555" fill-opacity="0.5"/>
<path d="M52.7766 25.3174L53.4116 24.2063L54.6814 23.9681L53.8084 23.0158L53.9671 21.7459L52.7766 22.3808L51.6655 21.7459L51.8243 23.0158L50.9512 23.9681L52.2211 24.2063L52.7766 25.3174Z" fill="#555555" fill-opacity="0.5"/>
<path d="M35.1584 25.3174L35.7139 24.2063L36.9838 23.9681L36.1107 23.0158L36.2695 21.7459L35.1584 22.3808L33.9679 21.7459L34.206 23.0158L33.2536 23.9681L34.5234 24.2063L35.1584 25.3174Z" fill="#555555" fill-opacity="0.5"/>
<path d="M43.7294 55.873L44.6818 57.7778L46.7452 58.0952L45.3167 59.6032L45.6341 61.746L43.7294 60.7936L41.8246 61.746L42.1421 59.6032L40.6341 58.0952L42.6976 57.7778L43.7294 55.873Z" fill="#555555" fill-opacity="0.5"/>
<path d="M52.7768 54.7618L53.4118 55.8729L54.6816 56.111L53.8086 56.984L53.9673 58.2539L52.7768 57.6983L51.6658 58.2539L51.8245 56.984L50.9515 56.111L52.2213 55.8729L52.7768 54.7618Z" fill="#555555" fill-opacity="0.5"/>
<path d="M35.1588 54.7618L35.7143 55.8729L36.9841 56.111L36.1111 56.984L36.2698 58.2539L35.1588 57.6983L33.9683 58.2539L34.2064 56.984L33.254 56.111L34.5238 55.8729L35.1588 54.7618Z" fill="#555555" fill-opacity="0.5"/>
<path d="M21.9854 22.6194C21.8267 22.7781 21.7473 22.9368 21.5886 23.0955C21.4299 23.2543 21.2711 23.3336 21.1918 23.3336C21.0331 23.413 20.8743 23.413 20.795 23.413C20.6362 23.413 20.4775 23.3336 20.3981 23.2543L17.9378 21.4289C17.7791 21.3495 17.6997 21.1908 17.6204 21.1114C17.541 20.9527 17.541 20.794 17.541 20.6352C17.541 20.4765 17.6204 20.3178 17.6998 20.1591C17.7791 20.0003 17.8585 19.8416 18.0172 19.6035C18.1759 19.4448 18.2553 19.286 18.414 19.1273C18.5727 18.9686 18.7315 18.8892 18.8108 18.8098C18.9696 18.7305 19.1283 18.7305 19.2871 18.7305C19.4458 18.7305 19.6045 18.8098 19.6839 18.8892L20.0807 19.2067L19.8426 19.5241C19.7632 19.6035 19.6839 19.6829 19.5251 19.7622C19.4458 19.7622 19.287 19.7622 19.2077 19.6829L19.1283 19.6035C18.9696 19.5241 18.8109 19.4448 18.7315 19.5241C18.5728 19.6035 18.4934 19.6829 18.3347 19.8416C18.2553 20.0003 18.1759 20.0797 18.1759 20.2384C18.1759 20.3972 18.1759 20.5559 18.3347 20.6352L20.7156 22.3813C20.795 22.4606 20.9537 22.4606 21.1124 22.4606C21.2712 22.3813 21.3505 22.3019 21.5093 22.1432C21.5886 22.0638 21.5886 21.9844 21.668 21.9051C21.668 21.8257 21.7473 21.7463 21.7473 21.667C21.7473 21.5876 21.7473 21.5083 21.7473 21.4289C21.7473 21.3495 21.668 21.3495 21.668 21.2702L21.5886 21.1908C21.5092 21.1114 21.4299 21.0321 21.4299 20.9527C21.4299 20.8733 21.4299 20.7146 21.5886 20.6352L21.8267 20.3178L22.3029 20.6352C22.4616 20.7146 22.541 20.8733 22.541 20.9527C22.6204 21.1114 22.6204 21.2702 22.541 21.4289C22.541 21.5876 22.4616 21.7463 22.3823 21.9051C22.2235 22.3019 22.0648 22.4606 21.9854 22.6194Z" fill="#555555" fill-opacity="0.5"/>
<path d="M25.3203 18.889C25.1616 19.0477 25.0029 19.1271 24.8442 19.2858C24.6854 19.3652 24.5267 19.4445 24.368 19.5239C24.2092 19.5239 24.0505 19.5239 23.8918 19.5239C23.7331 19.5239 23.6537 19.4445 23.495 19.2858L21.4314 17.0636C21.3521 16.9049 21.2727 16.8255 21.1934 16.6668C21.1934 16.508 21.1934 16.3493 21.1934 16.1906C21.2727 16.0318 21.3521 15.8731 21.4314 15.7144C21.5108 15.5556 21.6695 15.3969 21.8283 15.2382C21.987 15.0795 22.1458 15.0001 22.3045 14.8414C22.4632 14.762 22.6219 14.6826 22.7807 14.6033C22.9394 14.6033 23.0981 14.6033 23.2569 14.6033C23.4156 14.6033 23.495 14.6826 23.6537 14.8414L25.7172 17.0636C25.7965 17.2223 25.8759 17.3017 25.9553 17.4604C25.9553 17.6191 25.9553 17.7779 25.9553 17.9366C25.8759 18.0953 25.7965 18.254 25.7172 18.4128C25.6378 18.5715 25.4791 18.7302 25.3203 18.889ZM23.0981 15.4763C23.0188 15.3969 22.9394 15.3969 22.9394 15.3969C22.86 15.3969 22.7807 15.3969 22.7013 15.3969C22.6219 15.3969 22.5426 15.4763 22.4632 15.4763C22.3839 15.5557 22.3045 15.5556 22.3045 15.635C22.2251 15.7144 22.2251 15.7144 22.1457 15.7937C22.0664 15.8731 22.0664 15.9525 22.0664 16.0318C22.0664 16.1112 22.0664 16.1906 22.0664 16.2699C22.0664 16.3493 22.1457 16.4287 22.1457 16.508L24.2092 18.7302C24.2886 18.8096 24.368 18.8096 24.368 18.8096C24.4473 18.8096 24.5267 18.8096 24.606 18.8096C24.6854 18.8096 24.7648 18.7302 24.8442 18.7302C24.9235 18.6509 25.0029 18.6509 25.0029 18.5715C25.0822 18.4922 25.0822 18.4921 25.1616 18.4128C25.241 18.3334 25.241 18.2541 25.241 18.1747C25.241 18.0953 25.241 18.0159 25.241 17.9366C25.241 17.8572 25.1616 17.7779 25.1616 17.6985L23.0981 15.4763Z" fill="#555555" fill-opacity="0.5"/>
<path d="M28.258 10.635L28.3374 10.7937C28.3374 10.8731 28.4168 10.9525 28.3374 10.9525C28.3374 11.0318 28.3374 11.1112 28.258 11.1112V11.1905V11.2699L30.4803 14.762C30.4803 14.762 30.4803 14.8413 30.4803 14.9207C30.4803 15.0001 30.4009 15.0001 30.4009 15.0794L30.0041 15.3175C29.9247 15.3969 29.8453 15.3969 29.8453 15.3175C29.766 15.3175 29.766 15.2382 29.6866 15.2382C29.6866 15.2382 29.6072 15.1588 29.4485 15.0794C29.2898 15.0001 29.131 14.8413 28.9723 14.762C28.8136 14.6032 28.5755 14.5239 28.3374 14.3651C28.0993 14.2064 27.9406 14.0477 27.7025 13.9683C27.5438 13.8096 27.385 13.7302 27.2263 13.6509C27.0676 13.5715 27.0676 13.4922 27.0676 13.4922L28.4168 15.635C28.4168 15.7144 28.4961 15.7144 28.4961 15.7144H28.5755C28.6548 15.7144 28.6548 15.7144 28.7342 15.7144C28.8136 15.7144 28.8136 15.7937 28.893 15.8731L28.9723 16.0318L27.7818 16.7461L27.7025 16.5874C27.7025 16.508 27.6231 16.4286 27.7025 16.4286C27.7025 16.3493 27.7025 16.2699 27.7818 16.2699V16.1906V16.1112L25.7977 13.016C25.7183 13.016 25.7184 13.016 25.639 13.016C25.5596 13.016 25.5596 13.016 25.4803 13.016C25.4009 13.016 25.4009 12.9366 25.3215 12.8572L25.2422 12.6985L26.1152 12.1429C26.1945 12.1429 26.1946 12.0636 26.2739 12.0636C26.3533 12.0636 26.3533 12.0636 26.4327 12.1429C26.4327 12.1429 26.512 12.2223 26.5914 12.3017C26.7501 12.381 26.8295 12.4604 27.0676 12.6191C27.2263 12.7779 27.4644 12.8572 27.7025 13.016C27.9406 13.1747 28.0993 13.3334 28.3374 13.4922C28.4961 13.6509 28.7342 13.7302 28.893 13.889C29.0517 13.9683 29.1311 14.0477 29.2104 14.1271L27.8612 11.9049L27.7818 11.8255H27.7025C27.6231 11.8255 27.6231 11.8255 27.5437 11.8255C27.4644 11.8255 27.4644 11.7461 27.385 11.7461L27.3057 11.5874L28.258 10.635Z" fill="#555555" fill-opacity="0.5"/>
<path d="M33.2531 8.49268C33.3325 8.49268 33.3325 8.49268 33.3325 8.57205L33.5706 9.20696L33.3325 9.28632C33.2531 9.36569 33.0944 9.36569 33.015 9.36569C32.9357 9.36569 32.8563 9.36569 32.8563 9.28632C32.8563 9.20696 32.7769 9.20696 32.6182 9.28632L31.9039 9.60378C31.9039 9.60378 31.8246 9.60378 31.8246 9.68315V9.76252L32.3801 11.1117C32.3801 11.1117 32.3801 11.1911 32.4595 11.1911H32.5388L33.4912 10.7943C33.5706 10.7943 33.6499 10.7943 33.6499 10.8736L33.8087 11.1911C33.8087 11.2704 33.8086 11.2705 33.7293 11.3498L32.7769 11.7466C32.7769 11.7466 32.6975 11.7466 32.6975 11.826V11.9054L33.2531 13.2546C33.2531 13.3339 33.2531 13.3339 33.3325 13.3339H33.4119C33.4912 13.3339 33.4912 13.3339 33.5706 13.4133C33.65 13.4133 33.6499 13.4927 33.7293 13.572L33.8087 13.7308L32.4595 14.2863L32.3801 14.1276C32.3801 14.0482 32.3801 13.9688 32.3801 13.9688C32.3801 13.8895 32.4595 13.8895 32.4595 13.8101V13.7308V13.6514L31.1103 10.3181C31.1103 10.2387 31.0309 10.2387 30.9515 10.2387C30.8721 10.2387 30.8722 10.2387 30.7928 10.1593C30.7135 10.1593 30.7134 10.08 30.6341 10.0006L30.5547 9.84189L33.0944 8.81013C33.0944 8.49267 33.1737 8.49268 33.2531 8.49268Z" fill="#555555" fill-opacity="0.5"/>
<path d="M37.855 11.5874C37.855 11.6668 37.855 11.6668 37.9344 11.6668H38.0138C38.0931 11.6668 38.0931 11.7462 38.1725 11.7462C38.2519 11.7462 38.2518 11.8255 38.2518 11.9049L38.3312 12.0636L36.9026 12.3811L36.8233 12.2224C36.8233 12.143 36.8233 12.0636 36.8233 12.0636C36.8233 11.9843 36.9026 11.9843 36.9026 11.9049L36.982 11.8255V11.7462L36.109 8.17475C36.109 8.09539 36.109 8.09538 36.0296 8.09538H35.9503C35.8709 8.09538 35.8709 8.01601 35.7916 8.01601C35.7122 8.01601 35.7122 7.93666 35.7122 7.8573L35.6328 7.69856L37.0614 7.3811L37.1408 7.53984C37.1408 7.61921 37.1408 7.69856 37.1408 7.69856C37.1408 7.77792 37.0614 7.77793 37.0614 7.8573L36.982 7.93667V8.01601L37.855 11.5874Z" fill="#555555" fill-opacity="0.5"/>
<path d="M41.4321 6.74609C41.6702 6.74609 41.9083 6.74609 42.067 6.74609C42.2257 6.74609 42.3845 6.82544 42.5432 6.90481C42.7019 6.98417 42.7813 7.06353 42.7813 7.22226C42.8607 7.38099 42.8606 7.46036 42.8606 7.61909L43.0988 10.3969C43.0988 10.7143 43.0194 10.9524 42.8606 11.1905C42.6225 11.4286 42.3051 11.508 41.8289 11.5873L40.0035 11.7461V11.5873C40.0035 11.508 40.0035 11.4286 40.0035 11.3492C40.0035 11.2699 40.0829 11.2699 40.1623 11.2699C40.2416 11.2699 40.2416 11.1905 40.2416 11.1112L39.9242 7.53974C39.9242 7.53974 39.9241 7.46037 39.8448 7.46037C39.8448 7.46037 39.7654 7.46037 39.7654 7.381C39.6861 7.381 39.6861 7.30163 39.6067 7.30163C39.6067 7.22227 39.5273 7.22228 39.5273 7.06355V6.90481L41.4321 6.74609ZM42.067 7.69846C42.067 7.53973 41.9877 7.46037 41.9083 7.381C41.8289 7.30164 41.6702 7.30163 41.5115 7.30163L40.8765 7.381C40.7971 7.381 40.7972 7.381 40.7972 7.381V7.46037L41.1146 11.1112V11.1905H41.194L41.8289 11.1112C41.9876 11.1112 42.1464 11.0318 42.2257 10.9524C42.3051 10.8731 42.3051 10.7143 42.3051 10.5556L42.067 7.69846Z" fill="#555555" fill-opacity="0.5"/>
<path d="M46.6693 7.30149C46.6693 7.30149 46.59 7.38085 46.6693 7.30149L46.5106 8.73007C46.5106 8.80943 46.5106 8.80941 46.6693 8.80941L47.7011 8.88878H47.7804L47.8598 8.96815V9.36498C47.8598 9.44434 47.7804 9.44435 47.7011 9.44435L46.6693 9.36498C46.59 9.36498 46.5106 9.36498 46.5106 9.44435L46.3519 10.9523C46.3519 11.0316 46.3518 11.0316 46.4312 11.0316L47.3042 11.111C47.3836 11.111 47.3836 11.111 47.3836 11.0316C47.3836 10.9523 47.463 10.8729 47.5423 10.8729C47.6217 10.8729 47.7011 10.7935 47.8598 10.8729H48.1772L48.0979 11.5078C48.0979 11.5872 48.0979 11.5872 48.0185 11.5872C47.9391 11.5872 47.9392 11.5872 47.8598 11.5872L47.3042 11.5078L45.6375 11.3491L45.082 11.2697V11.111C45.082 11.0317 45.082 10.9523 45.1614 10.8729C45.1614 10.7935 45.2408 10.7935 45.3201 10.7935C45.3995 10.7935 45.4789 10.7142 45.4789 10.6348L45.7963 7.0634V6.98403L45.7169 6.90466C45.6376 6.90466 45.6376 6.82529 45.5582 6.82529C45.5582 6.74593 45.5582 6.66657 45.5582 6.58721V6.42847L48.336 6.66658C48.4153 6.66658 48.4947 6.66658 48.4947 6.74595L48.5741 6.82529L48.4947 7.53959H48.1772C48.0185 7.53959 47.9392 7.53959 47.8598 7.46023C47.7804 7.46023 47.701 7.38085 47.7804 7.30149V7.22212L47.7011 7.14277L46.828 7.0634C46.7487 7.3015 46.6693 7.30149 46.6693 7.30149Z" fill="#555555" fill-opacity="0.5"/>
<path d="M54.6056 8.3333L54.5263 8.49201C54.5263 8.57138 54.4469 8.65075 54.4469 8.65075C54.3675 8.65075 54.3675 8.73012 54.2882 8.73012H54.2088C54.2088 8.73012 54.2088 8.7301 54.1294 8.80947L53.0183 12.7777C53.0183 12.8571 52.939 12.8571 52.939 12.8571C52.8596 12.8571 52.8596 12.8571 52.7802 12.8571L52.304 12.6984C52.2247 12.6984 52.2247 12.619 52.1453 12.619C52.1453 12.5396 52.1453 12.4603 52.1453 12.3809C52.1453 12.3809 52.1453 12.3015 52.1453 12.0634C52.1453 11.9047 52.066 11.6666 52.066 11.5079C52.066 11.2698 51.9866 11.0317 51.9866 10.7936C51.9866 10.5555 51.9072 10.3174 51.9072 10.0793C51.9072 9.84121 51.8279 9.6825 51.8279 9.52377C51.8279 9.36504 51.8279 9.28566 51.8279 9.28566L51.1136 11.6666C51.1136 11.746 51.1136 11.746 51.1136 11.746C51.1136 11.746 51.1135 11.8253 51.1929 11.8253C51.1929 11.8253 51.2723 11.9047 51.2723 11.9841C51.2723 12.0634 51.2723 12.1428 51.2723 12.1428L51.1929 12.3015L49.8438 11.9047L49.9231 11.746C49.9231 11.6666 50.0024 11.5872 50.0024 11.5872C50.0818 11.5872 50.0818 11.5079 50.1612 11.5079H50.2406C50.2406 11.5079 50.2406 11.5079 50.3199 11.4285L51.3517 7.8571C51.2723 7.8571 51.2723 7.77773 51.1929 7.77773C51.1929 7.77773 51.1136 7.69836 51.1136 7.61899C51.1136 7.53963 51.1136 7.53964 51.1136 7.46028L51.1929 7.22217L52.1453 7.46028C52.2247 7.46028 52.2247 7.53965 52.304 7.53965C52.304 7.53965 52.3834 7.619 52.3834 7.69836C52.3834 7.69836 52.3834 7.77774 52.3834 7.93647C52.3834 8.0952 52.3834 8.25392 52.4628 8.49201C52.4628 8.73011 52.5421 8.9682 52.5421 9.20629C52.5421 9.44439 52.6215 9.76184 52.6215 9.99994C52.6215 10.238 52.7009 10.4761 52.7009 10.6349C52.7009 10.7936 52.7008 10.9523 52.7802 11.0317L53.4945 8.57138C53.4945 8.49202 53.4945 8.49201 53.4945 8.49201C53.4945 8.49201 53.4945 8.41264 53.4152 8.41264C53.4152 8.41264 53.3358 8.33329 53.3358 8.25393C53.3358 8.17456 53.3358 8.09519 53.3358 8.09519L53.4152 7.93647L54.6056 8.3333Z" fill="#555555" fill-opacity="0.5"/>
<path d="M60.1561 10.9525C60.1561 11.0318 60.1561 11.1112 60.1561 11.1906L60.0767 11.3493L59.8386 11.7461L59.4418 11.508C59.3624 11.508 59.283 11.4287 59.283 11.3493C59.283 11.2699 59.283 11.2699 59.283 11.1906C59.283 11.1112 59.2831 11.1112 59.2037 11.0319L58.8069 10.8731H58.7275C58.7275 10.8731 58.6481 10.8731 58.6481 10.9525L56.9815 14.2064V14.2858C56.9815 14.2858 56.9815 14.3652 57.0608 14.3652C57.0608 14.4445 57.1402 14.4445 57.1402 14.5239C57.1402 14.6033 57.1402 14.6826 57.1402 14.6826L57.0608 14.8414L55.791 14.2064L55.8704 14.0477C55.8704 13.9683 55.9497 13.9684 56.0291 13.889C56.1085 13.889 56.1878 13.889 56.1878 13.889H56.2672C56.2672 13.889 56.3465 13.889 56.3465 13.8096L58.0132 10.5557V10.4763L57.9338 10.3969L57.6164 10.2382H57.537C57.537 10.2382 57.4577 10.2382 57.4577 10.3176C57.4577 10.3969 57.3783 10.3969 57.2989 10.3969C57.2196 10.3969 57.1402 10.3969 56.9815 10.3176L56.5847 10.1588L56.7434 9.84138L56.8227 9.68264C56.9021 9.60328 56.9021 9.52393 56.9815 9.52393C57.0609 9.52393 57.1402 9.52391 57.2989 9.60327L59.8386 10.8731C59.9973 10.8731 60.0767 10.8731 60.1561 10.9525Z" fill="#555555" fill-opacity="0.5"/>
<path d="M60.7151 16.4287C60.7151 16.5081 60.6358 16.5081 60.7151 16.5081V16.5875C60.7151 16.6668 60.7152 16.6668 60.7945 16.7462C60.7945 16.8255 60.7945 16.9049 60.7151 16.9049L60.6358 17.0637L59.4453 16.1906L59.5247 16.0319C59.604 15.9525 59.604 15.9525 59.6834 15.9525C59.7628 15.9525 59.8421 15.9525 59.8421 15.9525H59.9215C59.9215 15.9525 60.0009 15.9525 60.0009 15.8732L62.1437 12.9367V12.8573V12.7779C62.1437 12.6986 62.1437 12.6986 62.0643 12.6192C62.0643 12.5398 62.0644 12.4605 62.1437 12.4605L62.2231 12.3018L63.4136 13.1748L63.3342 13.3335C63.2548 13.4129 63.2548 13.4129 63.1755 13.4129C63.0961 13.4129 63.0167 13.4129 63.0167 13.4129H62.9374C62.9374 13.4129 62.858 13.4129 62.858 13.4922L60.7151 16.4287Z" fill="#555555" fill-opacity="0.5"/>
<path d="M64.8432 20.3174C64.8432 20.3967 64.8432 20.3967 64.8432 20.4761C64.8432 20.5555 64.8433 20.6348 64.7639 20.6348L64.6052 20.7936L63.5734 19.7618L63.7322 19.6031C63.8115 19.5237 63.8115 19.5237 63.8909 19.5237C63.9702 19.5237 64.0496 19.5237 64.0496 19.5237H64.129H64.2083C64.2877 19.4443 64.2877 19.365 64.3671 19.365C64.3671 19.2856 64.4464 19.2856 64.4464 19.2063C64.4464 19.1269 64.5258 19.1269 64.5258 19.1269C64.5258 19.0475 64.5258 19.0475 64.5258 18.9682C64.5258 18.9682 64.5258 18.8888 64.4464 18.8888L63.7322 18.1745C63.6528 18.0952 63.5734 18.0952 63.494 18.1745C63.494 18.1745 63.4147 18.1745 63.4147 18.2539C63.3353 18.2539 63.3353 18.3332 63.256 18.3332C63.1766 18.4126 63.0972 18.4126 63.0972 18.492L63.0179 18.5713V18.6507C63.0179 18.7301 63.0179 18.7301 63.0179 18.8094C63.0179 18.8888 63.0179 18.9682 62.9385 18.9682L62.7798 19.1269L61.748 18.0952L61.9067 17.9364C61.9861 17.857 61.9861 17.8571 62.0655 17.8571C62.1448 17.8571 62.2242 17.8571 62.2242 17.8571H62.3036H62.383C62.9385 17.4602 63.4941 17.1428 63.9703 16.9047C64.2083 16.746 64.3671 16.6666 64.5258 16.5872C64.6845 16.5079 64.9226 16.3491 65.002 16.2698C65.1607 16.1904 65.2401 16.111 65.3988 16.0317C65.4782 15.9523 65.5576 15.9523 65.5576 15.9523L65.6369 15.8729V15.7936C65.5575 15.6348 65.5576 15.5555 65.7163 15.3968L65.7956 15.3174L66.5893 16.111C66.6687 16.1904 66.748 16.2698 66.748 16.4285C66.748 16.5079 66.748 16.5872 66.6686 16.6666C66.6686 16.6666 66.5893 16.7459 66.5893 16.8253C66.5099 16.9047 66.4306 17.0634 66.3512 17.2221C66.2718 17.3809 66.1131 17.5396 66.0337 17.7777C65.875 18.0158 65.7956 18.1745 65.6369 18.4126C65.3194 18.8888 65.002 19.4444 64.6052 20.0793V20.1586C64.8433 20.3174 64.8432 20.3174 64.8432 20.3174ZM64.8432 18.492L64.9226 18.5713H65.002C65.002 18.5713 65.002 18.5713 65.0813 18.492C65.0813 18.4126 65.1607 18.3333 65.2401 18.2539C65.3194 18.1745 65.3988 18.0158 65.4782 17.9364C65.5575 17.857 65.6369 17.6983 65.7163 17.5396L66.3512 16.5079L65.3988 17.1428C65.2401 17.2221 65.1607 17.3015 65.002 17.3809C64.9226 17.4602 64.7639 17.5396 64.6845 17.619C64.6051 17.6983 64.5258 17.6983 64.4464 17.7777C64.3671 17.7777 64.3671 17.8571 64.3671 17.8571V17.9364C64.3671 17.9364 64.3671 18.0158 64.4464 18.0158L64.8432 18.492Z" fill="#555555" fill-opacity="0.5"/>
<path d="M68.0177 23.9681L67.4621 24.365C67.3827 24.365 67.3828 24.365 67.3034 24.365C67.224 24.365 67.224 24.2856 67.224 24.2856L67.1447 24.1269L65.6367 21.984L65.7955 21.9047C65.8748 21.8253 65.9542 21.8253 66.0335 21.8253C66.1129 21.8253 66.1129 21.8253 66.1923 21.9047C66.1923 21.9047 66.2716 21.9047 66.2716 21.984H66.351L69.2875 19.9205C69.3669 19.9205 69.3669 19.8412 69.3669 19.8412V19.7618C69.3669 19.6824 69.3669 19.6824 69.3669 19.6031C69.3669 19.5237 69.4462 19.4444 69.4462 19.4444L69.605 19.365L70.3986 20.5555L70.2399 20.6348C70.1605 20.7142 70.0812 20.7142 70.0812 20.7142C70.0018 20.7142 69.9224 20.7142 69.9224 20.6348H69.843H69.7637L66.8272 22.6983L66.7478 22.7777V22.857L67.224 23.492L67.3034 23.5713H67.3828C67.4621 23.492 67.5415 23.492 67.6208 23.5713C67.7002 23.6507 67.7796 23.7301 67.8589 23.8094L68.0177 23.9681Z" fill="#555555" fill-opacity="0.5"/>
<path d="M17.5426 60.3969C17.3839 60.2382 17.3045 60.0794 17.2251 59.8413C17.1458 59.6826 17.0664 59.5239 17.0664 59.3651C17.0664 59.2064 17.0664 59.0477 17.1458 58.9683C17.2252 58.8096 17.3045 58.7302 17.4632 58.6509L19.9236 56.8255C20.0823 56.7461 20.1617 56.6667 20.3204 56.6667C20.4791 56.6667 20.6378 56.6668 20.7966 56.7461C20.9553 56.8255 21.114 56.9048 21.1934 56.9842C21.3521 57.1429 21.4315 57.3017 21.5902 57.4604C21.7489 57.6191 21.8283 57.7778 21.9077 58.0159C21.9871 58.1747 22.0664 58.3334 22.0664 58.4921C22.0664 58.6509 22.0664 58.8096 21.987 58.9683C21.9077 59.1271 21.8283 59.2064 21.6696 59.2858L21.2728 59.6032L21.0347 59.2858C20.9553 59.2064 20.876 59.0477 20.876 58.9683C20.876 58.889 20.9553 58.7302 21.0347 58.7302L21.114 58.6509C21.2728 58.5715 21.3521 58.4128 21.2728 58.254C21.2728 58.0953 21.1934 57.9366 21.114 57.8572C21.0347 57.6985 20.876 57.6191 20.7172 57.5398C20.5585 57.4604 20.3998 57.4604 20.3204 57.6191L17.9394 59.3651C17.8601 59.4445 17.7807 59.5239 17.7807 59.6826C17.7807 59.8413 17.8601 60.0001 17.9394 60.0794C18.0188 60.1588 18.0188 60.2382 18.0982 60.2382C18.1776 60.3175 18.2569 60.3175 18.3363 60.3969C18.4156 60.3969 18.495 60.3969 18.5744 60.4763C18.6537 60.4763 18.7331 60.4762 18.7331 60.3969L18.8124 60.3175C18.8918 60.2382 18.9712 60.2382 19.0505 60.2382C19.1299 60.2382 19.2886 60.3175 19.368 60.4763L19.6061 60.7937L19.1299 61.1112C18.9712 61.1906 18.8918 61.2699 18.7331 61.2699C18.5744 61.2699 18.4156 61.2699 18.3363 61.1905C18.1775 61.1112 18.0188 61.0318 17.9394 60.8731C17.8601 60.7143 17.7014 60.5556 17.5426 60.3969Z" fill="#555555" fill-opacity="0.5"/>
<path d="M21.5108 64.8409C21.3521 64.6821 21.1934 64.5234 21.114 64.3647C21.0347 64.206 20.9553 64.0472 20.8759 63.8885C20.7966 63.7298 20.7966 63.571 20.8759 63.4123C20.8759 63.2536 20.9553 63.1742 21.114 63.0155L23.1775 60.7933C23.2568 60.6345 23.4156 60.5552 23.5743 60.5552C23.733 60.5552 23.8918 60.5552 24.0505 60.5552C24.2093 60.5552 24.368 60.6345 24.5267 60.7933C24.6854 60.8726 24.8441 61.0314 25.0029 61.1901C25.1616 61.3488 25.3203 61.5075 25.3997 61.6663C25.4791 61.825 25.5585 61.9837 25.6378 62.1425C25.7172 62.3012 25.7172 62.4599 25.6378 62.6187C25.6378 62.7774 25.5584 62.9361 25.3997 63.0155L23.3362 65.2377C23.2569 65.3964 23.0981 65.4758 22.9394 65.4758C22.7807 65.4758 22.622 65.5552 22.4632 65.4758C22.3045 65.4758 22.1457 65.3964 21.987 65.3171C21.8283 65.079 21.6696 64.9996 21.5108 64.8409ZM24.7648 62.3806C24.8441 62.3012 24.8442 62.2218 24.8442 62.1425C24.8442 62.0631 24.8442 61.9838 24.8442 61.9044C24.8442 61.825 24.7648 61.7456 24.7648 61.6663C24.6854 61.5869 24.6854 61.5076 24.606 61.5076C24.5267 61.4282 24.4473 61.4282 24.368 61.3488C24.2886 61.2695 24.2092 61.2695 24.1299 61.2695C24.0505 61.2695 23.9712 61.2695 23.8918 61.2695C23.8124 61.2695 23.733 61.3488 23.733 61.4282L21.6696 63.6504C21.5902 63.7298 21.5902 63.8091 21.5902 63.8885C21.5902 63.9679 21.5902 64.0472 21.5902 64.1266C21.5902 64.206 21.6696 64.2853 21.6696 64.3647C21.7489 64.444 21.7489 64.5234 21.8283 64.5234C21.9076 64.6028 21.987 64.6028 21.987 64.6822C22.0664 64.7615 22.1457 64.7615 22.2251 64.7615C22.3045 64.7615 22.3839 64.7615 22.4632 64.7615C22.5426 64.7615 22.6219 64.6822 22.6219 64.6028L24.7648 62.3806Z" fill="#555555" fill-opacity="0.5"/>
<path d="M30.4747 65.2382L30.3954 65.397C30.3954 65.4763 30.316 65.4763 30.2366 65.4763C30.1573 65.4763 30.0779 65.4763 30.0779 65.4763H29.9986C29.9986 65.4763 29.9192 65.4763 29.9192 65.5557L27.7763 69.0478L27.697 69.1271C27.6176 69.1271 27.6176 69.1271 27.5382 69.1271L27.1414 68.889C27.062 68.8097 27.0621 68.8096 27.0621 68.7303C27.0621 68.6509 27.0621 68.5716 27.0621 68.4922C27.0621 68.4922 27.062 68.4128 27.1414 68.1747C27.1414 68.016 27.2208 67.8573 27.2208 67.6192C27.2208 67.3811 27.3001 67.143 27.3001 66.9049C27.3795 66.6668 27.3795 66.4287 27.3795 66.1906C27.3795 65.9525 27.4589 65.7938 27.4589 65.635C27.4589 65.4763 27.4589 65.397 27.4589 65.397L26.1097 67.5398V67.6192V67.6985C26.1097 67.7779 26.189 67.7779 26.189 67.8573C26.189 67.9366 26.189 68.016 26.1097 68.016L26.0303 68.1747L24.8398 67.4605L24.9192 67.3017C24.9192 67.2224 24.9986 67.2223 25.0779 67.2223C25.1573 67.2223 25.2367 67.2223 25.2367 67.2223H25.316C25.316 67.2223 25.3954 67.2223 25.3954 67.143L27.3795 64.0478C27.3001 63.9684 27.3001 63.9684 27.3001 63.889C27.3001 63.8097 27.3001 63.8097 27.3001 63.7303C27.3001 63.6509 27.3001 63.6509 27.3795 63.5716L27.4589 63.4128L28.3319 63.9684C28.4112 63.9684 28.4113 64.0478 28.4113 64.0478C28.4113 64.1271 28.4113 64.1271 28.4113 64.2065C28.4113 64.2065 28.4112 64.2858 28.3319 64.4446C28.3319 64.6033 28.2525 64.762 28.2525 65.0001C28.2525 65.2382 28.1732 65.4763 28.0938 65.7144C28.0144 65.9525 28.0144 66.1906 27.935 66.4287C27.8557 66.6668 27.8557 66.9049 27.8557 67.0636C27.8557 67.2224 27.7763 67.3811 27.7763 67.4605L29.1255 65.2382V65.1589V65.0795C29.1255 65.0001 29.0462 65.0001 29.0462 64.9208C29.0462 64.8414 29.0462 64.762 29.0462 64.762L29.1255 64.6033L30.4747 65.2382Z" fill="#555555" fill-opacity="0.5"/>
<path d="M34.6058 67.1433C34.6058 67.2226 34.6852 67.2227 34.6058 67.302L34.3678 67.9369L34.1296 67.8576C34.0503 67.7782 33.8915 67.7782 33.8915 67.6988C33.8122 67.6195 33.8122 67.5401 33.8122 67.5401C33.8122 67.4607 33.8122 67.4608 33.6535 67.3814L32.9391 67.0639H32.8598C32.8598 67.0639 32.7805 67.0639 32.7805 67.1433L32.2249 68.4925V68.5719C32.2249 68.5719 32.3042 68.5719 32.3042 68.6512L33.2566 69.0481C33.336 69.0481 33.336 69.1274 33.336 69.2068L33.1773 69.5242C33.1773 69.6036 33.0979 69.6036 33.0185 69.6036L32.0662 69.2068H31.9868C31.9868 69.2068 31.9074 69.2068 31.9074 69.2861L31.3519 70.6354C31.3519 70.7147 31.3519 70.7147 31.3519 70.7147C31.3519 70.7147 31.3519 70.7941 31.4312 70.7941C31.4312 70.8734 31.5106 70.8734 31.5106 70.9528C31.5106 71.0322 31.5106 71.1115 31.5106 71.1115L31.4312 71.2703L30.082 70.7147L30.1614 70.556C30.1614 70.4766 30.2408 70.4766 30.3201 70.3972C30.3995 70.3972 30.3995 70.3179 30.4789 70.3179H30.5582C30.5582 70.3179 30.6376 70.3179 30.6376 70.2385L31.9868 66.9052C31.9868 66.8258 31.9868 66.7465 31.9074 66.7465C31.828 66.6671 31.8281 66.6671 31.8281 66.5877C31.8281 66.5084 31.8281 66.429 31.8281 66.3496L31.9074 66.1909L34.4471 67.2227C34.5265 67.0639 34.6058 67.0639 34.6058 67.1433Z" fill="#555555" fill-opacity="0.5"/>
<path d="M36.5914 71.9845C36.5914 72.0638 36.5914 72.0638 36.5914 72.0638C36.5914 72.0638 36.5914 72.1432 36.6707 72.1432C36.6707 72.1432 36.7501 72.2225 36.7501 72.3019C36.7501 72.3813 36.8295 72.4606 36.7501 72.4606L36.6707 72.6194L35.2422 72.3019L35.3215 72.1432C35.3215 72.0638 35.4009 71.9845 35.4009 71.9845C35.4803 71.9845 35.4803 71.9051 35.5597 71.9051H35.639C35.639 71.9051 35.639 71.9051 35.639 71.8257L36.512 68.2543C36.512 68.175 36.512 68.1749 36.512 68.1749C36.512 68.1749 36.512 68.0956 36.4327 68.0956C36.4327 68.0956 36.3533 68.0162 36.3533 67.9368C36.3533 67.8575 36.274 67.7781 36.3533 67.7781L36.4327 67.6194L37.8612 67.9368L37.7819 68.0956C37.7819 68.1749 37.7025 68.2543 37.7025 68.2543C37.6231 68.2543 37.6232 68.3337 37.5438 68.3337H37.4644C37.4644 68.3337 37.4644 68.413 37.385 68.413L36.5914 71.9845Z" fill="#555555" fill-opacity="0.5"/>
<path d="M41.4266 68.4126C41.6646 68.4126 41.9027 68.492 42.0615 68.5714C42.2202 68.6507 42.3789 68.7301 42.4583 68.8094C42.5377 68.8888 42.6171 69.0475 42.6964 69.1269C42.7758 69.2856 42.7758 69.4444 42.7758 69.6031L42.5377 72.3809C42.5377 72.6983 42.379 72.9364 42.1409 73.0951C41.9028 73.2539 41.5059 73.3333 41.0297 73.3333L39.125 73.1745V73.0158C39.125 72.9364 39.125 72.8571 39.2043 72.7777C39.2043 72.6983 39.2837 72.6983 39.3631 72.6983C39.4424 72.6983 39.4424 72.619 39.4424 72.5396L39.7599 68.9682V68.8888L39.6805 68.8094C39.6012 68.8094 39.6012 68.7301 39.5218 68.7301C39.5218 68.6507 39.5218 68.5714 39.5218 68.492V68.3333L41.4266 68.4126ZM41.9028 69.5237C41.9028 69.365 41.9027 69.2063 41.8234 69.1269C41.744 69.0475 41.5853 68.9682 41.4266 68.9682L40.7916 68.8888C40.7123 68.8888 40.7123 68.8888 40.7123 68.8888C40.7123 68.8888 40.7123 68.8888 40.7123 68.9682L40.3948 72.619V72.6983C40.3948 72.6983 40.3948 72.6983 40.4742 72.6983L41.1091 72.7777C41.2679 72.7777 41.4266 72.7777 41.5059 72.6983C41.5853 72.619 41.6646 72.4602 41.6646 72.3015L41.9028 69.5237Z" fill="#555555" fill-opacity="0.5"/>
<path d="M45.8739 68.9684C45.8739 69.0478 45.8739 69.0478 45.8739 68.9684L45.9533 70.397C45.9533 70.4763 46.0326 70.4763 46.112 70.4763L47.1437 70.397H47.2231C47.2231 70.397 47.3025 70.397 47.3025 70.4763V70.8732C47.3025 70.9525 47.3025 70.9525 47.1437 70.9525L46.112 71.0319C46.0326 71.0319 45.9533 71.1112 45.9533 71.1112L46.112 72.6192C46.112 72.6986 46.1914 72.6985 46.1914 72.6985L47.0644 72.6192C47.1438 72.6192 47.1437 72.6192 47.1437 72.5398C47.1437 72.4605 47.1437 72.3811 47.2231 72.3811C47.3024 72.3017 47.3818 72.3017 47.5406 72.3017H47.858L47.9374 72.9367C47.9374 73.016 47.9374 73.016 47.858 73.0954C47.7787 73.0954 47.7787 73.1747 47.6993 73.1747L47.1437 73.2541L45.4771 73.4128L44.9215 73.4922V73.3335C44.9215 73.2541 44.9215 73.1747 44.9215 73.0954C44.9215 73.016 45.0009 73.016 45.0803 72.9367C45.1596 72.9367 45.1596 72.8573 45.1596 72.7779L44.8421 69.2065C44.8421 69.2065 44.8422 69.1271 44.7628 69.1271C44.7628 69.1271 44.6834 69.1271 44.6834 69.0478C44.6041 69.0478 44.6041 68.9684 44.5247 68.9684C44.5247 68.889 44.4453 68.889 44.4453 68.8097V68.651L47.2231 68.4128C47.3024 68.4128 47.3818 68.4128 47.3818 68.4128C47.4612 68.4128 47.4612 68.4922 47.4612 68.4922L47.5406 69.2065H47.2231C47.0644 69.2065 46.985 69.2065 46.9057 69.2065C46.8263 69.2065 46.7469 69.1271 46.7469 69.0478V68.9684H46.6676L45.7945 69.0478C45.9533 68.9684 45.9533 68.9684 45.8739 68.9684Z" fill="#555555" fill-opacity="0.5"/>
<path d="M52.8593 66.9849L52.9386 67.1436C52.9386 67.2229 52.9386 67.3023 52.9386 67.3023C52.9386 67.3817 52.8593 67.3817 52.8593 67.4611C52.8593 67.4611 52.8592 67.5404 52.7799 67.5404V67.6198L53.891 71.588C53.891 71.6674 53.891 71.6674 53.891 71.7468C53.891 71.8261 53.8116 71.8261 53.7323 71.8261L53.2561 71.9848C53.1767 71.9848 53.0973 71.9848 53.0973 71.9848C53.018 71.9848 53.018 71.9055 52.9386 71.8261C52.9386 71.8261 52.8592 71.7467 52.7799 71.588C52.7005 71.4293 52.5418 71.3499 52.383 71.1118C52.2243 70.9531 52.0656 70.715 51.9069 70.5563C51.7481 70.3182 51.5894 70.1594 51.4307 70.0007C51.272 69.842 51.1926 69.6833 51.1132 69.6039C51.0339 69.5245 50.9545 69.4452 50.9545 69.4452L51.6688 71.8261C51.6688 71.9055 51.6688 71.9055 51.7481 71.9055H51.8275C51.9069 71.9055 51.9069 71.9055 51.9862 71.9848C52.0656 71.9848 52.0656 72.0642 52.0656 72.1436L52.145 72.3023L50.7957 72.6991L50.7164 72.5404C50.7164 72.461 50.7164 72.3817 50.7164 72.3817C50.7164 72.3023 50.7957 72.3023 50.7957 72.223C50.7957 72.223 50.7958 72.2229 50.8751 72.1436V72.0642L49.8434 68.4928C49.764 68.4928 49.764 68.4928 49.6847 68.4928C49.6053 68.4928 49.6053 68.4928 49.5259 68.4134C49.4466 68.4134 49.4466 68.3341 49.4466 68.2547L49.3672 68.0166L50.3196 67.7785C50.3989 67.7785 50.4783 67.7785 50.4783 67.7785C50.5577 67.7785 50.5577 67.7785 50.5577 67.8579C50.5577 67.8579 50.637 67.9372 50.7164 68.0166C50.7958 68.096 50.9545 68.2547 51.0339 68.4928C51.1926 68.6515 51.3513 68.8896 51.51 69.0484C51.6688 69.2865 51.8275 69.4452 51.9862 69.6833C52.1449 69.842 52.3037 70.0801 52.383 70.1595C52.4624 70.3182 52.5418 70.3975 52.6212 70.4769L51.9069 68.0166C51.9069 67.9372 51.9069 67.9372 51.8275 67.9372H51.7481C51.6688 67.9372 51.6688 67.9372 51.5894 67.8579C51.51 67.8579 51.51 67.7785 51.51 67.6991L51.4307 67.5404L52.8593 66.9849Z" fill="#555555" fill-opacity="0.5"/>
<path d="M57.5388 64.7625C57.6182 64.7625 57.6975 64.8418 57.6975 64.9212L57.7769 65.0799L57.9356 65.3974L57.5388 65.6355C57.4594 65.6355 57.3801 65.7148 57.3007 65.6355C57.2214 65.6355 57.2213 65.5561 57.142 65.5561C57.142 65.4767 57.0627 65.4767 56.9833 65.5561L56.5865 65.7148C56.5865 65.7148 56.5071 65.7148 56.5071 65.7942V65.8736L58.1738 69.1275L58.2531 69.2069H58.3325C58.4118 69.2069 58.4118 69.2069 58.4912 69.2069C58.5706 69.2069 58.5706 69.2863 58.6499 69.3656L58.7293 69.5243L57.4595 70.1593L57.3801 70.0005C57.3801 69.9212 57.3008 69.8418 57.3801 69.8418C57.3801 69.7625 57.4595 69.6831 57.4595 69.6831V69.6037V69.5243L55.7928 66.2704C55.7928 66.2704 55.7928 66.191 55.7134 66.191H55.6341L55.3166 66.3497C55.3166 66.3497 55.2373 66.3498 55.2373 66.4291V66.5085C55.2373 66.5879 55.2373 66.6672 55.2373 66.6672C55.2373 66.7466 55.1579 66.7466 54.9992 66.8259L54.6023 66.9847L54.4436 66.5879L54.3642 66.4291C54.2848 66.3498 54.2848 66.2704 54.3642 66.191C54.4436 66.1117 54.523 66.0323 54.6023 65.9529L57.142 64.6831C57.3801 64.7625 57.4594 64.7625 57.5388 64.7625Z" fill="#555555" fill-opacity="0.5"/>
<path d="M62.4635 66.5079C62.4635 66.5873 62.4635 66.5873 62.4635 66.5079C62.5428 66.5873 62.6222 66.5873 62.6222 66.5873C62.7016 66.5873 62.7016 66.5873 62.7809 66.5873C62.8603 66.5873 62.9397 66.6667 62.9397 66.6667L63.019 66.8254L61.8286 67.6984L61.7492 67.5397C61.6698 67.4603 61.6698 67.381 61.6698 67.381C61.6698 67.3016 61.6698 67.2222 61.7492 67.2222V67.1429V67.0635L59.6063 64.127L59.527 64.0476H59.4476C59.3682 64.0476 59.3682 64.0476 59.2889 64.0476C59.2095 64.0476 59.1301 63.9683 59.1301 63.9683L59.0508 63.8095L60.2413 62.9365L60.3206 63.0953C60.4 63.1746 60.4 63.254 60.4 63.254C60.4 63.3333 60.4 63.4127 60.3206 63.4127V63.4921V63.5714L62.4635 66.5079Z" fill="#555555" fill-opacity="0.5"/>
<path d="M67.2253 62.4599C67.3047 62.4599 67.3047 62.4599 67.3841 62.4599C67.4634 62.4599 67.5428 62.4599 67.5428 62.5393L67.7015 62.698L66.6698 63.7298L66.5111 63.571C66.4317 63.4917 66.4317 63.4917 66.4317 63.4123C66.4317 63.333 66.4317 63.3329 66.4317 63.2536V63.1742V63.0949C66.3523 63.0155 66.2729 63.0155 66.2729 62.9361C66.1936 62.9361 66.1936 62.8568 66.1142 62.8568C66.0349 62.8568 66.0348 62.7774 66.0348 62.7774C65.9555 62.7774 65.9555 62.7774 65.8761 62.7774C65.8761 62.7774 65.7968 62.7774 65.7968 62.8568L65.0825 63.571C65.0031 63.6504 65.0031 63.7298 65.0825 63.8091C65.0825 63.8091 65.0825 63.8885 65.1619 63.8885C65.1619 63.9679 65.2412 63.9679 65.2412 64.0472C65.3206 64.1266 65.3206 64.206 65.3999 64.206L65.4793 64.2853H65.5587C65.638 64.2853 65.6381 64.2853 65.7174 64.2853C65.7968 64.2853 65.8761 64.2853 65.8761 64.3647L66.0348 64.5234L65.0031 65.5552L64.9238 65.3964C64.8444 65.3171 64.8444 65.3171 64.8444 65.2377C64.8444 65.1583 64.8444 65.079 64.8444 65.079V64.9996V64.9202C64.4475 64.3647 64.1301 63.8091 63.892 63.3329C63.7333 63.0949 63.6539 62.9361 63.5746 62.7774C63.4952 62.6187 63.3364 62.3806 63.2571 62.3012C63.1777 62.1425 63.0984 62.0631 63.019 61.9044C62.9396 61.825 62.9396 61.7456 62.9396 61.7456L62.8603 61.6663H62.7809C62.6222 61.7456 62.5428 61.7456 62.3841 61.5869L62.3047 61.5076L63.0983 60.7139C63.1777 60.6346 63.2571 60.5552 63.4158 60.5552C63.4952 60.5552 63.5745 60.5552 63.6539 60.6345C63.6539 60.6345 63.7333 60.7139 63.8126 60.7139C63.892 60.7933 64.0507 60.8726 64.2095 60.952C64.3682 61.0314 64.5269 61.1901 64.765 61.2695C65.0031 61.4282 65.1618 61.5075 65.3999 61.6663C65.8761 61.9837 66.4317 62.3012 67.0666 62.698H67.146C67.146 62.4599 67.146 62.4599 67.2253 62.4599ZM65.3206 62.4599L65.3999 62.3806V62.3012C65.3999 62.3012 65.4 62.3012 65.3206 62.2218C65.2412 62.2218 65.1618 62.1425 65.0825 62.0631C65.0031 61.9837 64.8444 61.9044 64.765 61.825C64.6857 61.7457 64.5269 61.6663 64.3682 61.5869L63.4158 60.952L64.0507 61.9837C64.1301 62.1425 64.2094 62.2218 64.2888 62.3806C64.3682 62.4599 64.4476 62.6187 64.5269 62.698C64.6063 62.7774 64.6063 62.8568 64.6856 62.9361C64.765 63.0155 64.765 63.0155 64.765 63.0155H64.8444C64.8444 63.0155 64.9238 63.0155 64.9238 62.9361L65.3206 62.4599Z" fill="#555555" fill-opacity="0.5"/>
<path d="M70.1601 57.778L70.7157 58.1749C70.7951 58.1749 70.795 58.2542 70.795 58.3336C70.795 58.413 70.7951 58.413 70.7157 58.4923L70.6363 58.6511L69.1284 60.7939L68.9697 60.7146C68.8903 60.6352 68.8109 60.6352 68.8109 60.5558C68.8109 60.4765 68.8109 60.4764 68.8109 60.3971V60.3177C68.8109 60.3177 68.8109 60.2384 68.7316 60.2384L65.7951 58.1749C65.7157 58.1749 65.7157 58.1749 65.7157 58.1749H65.6363C65.557 58.1749 65.557 58.2542 65.4776 58.2542C65.3982 58.2542 65.3189 58.2542 65.3189 58.1749L65.1602 58.0955L65.9538 56.905L66.1125 56.9844C66.1919 57.0638 66.1919 57.0638 66.1919 57.1431C66.1919 57.2225 66.1919 57.3019 66.1919 57.3019V57.3812C66.1919 57.3812 66.1919 57.4606 66.2712 57.4606L69.2077 59.5241H69.2871C69.2871 59.5241 69.3665 59.5241 69.3665 59.4447L69.7633 58.8098V58.7304C69.7633 58.7304 69.7633 58.6511 69.684 58.6511C69.6046 58.5717 69.6046 58.4923 69.6046 58.413C69.6046 58.3336 69.6839 58.2542 69.7633 58.0955L70.1601 57.778Z" fill="#555555" fill-opacity="0.5"/>
</svg>
